#!OML:ASF E:\emotionWalksFemale\Project 1\Capture day 1\Session 1\Female1.ASF
:FULLY-SPECIFIED
:DEGREES
191
root 8.25993 15.1517 42.2867 179.644 -6.71768 -179.894
lowerback 6.82895 2.35659 0.890825
upperback -3.5945 3.19271 -0.212068
thorax -7.54402 1.49644 -1.14124
lowerneck -6.60235 12.3478 4.9435
upperneck 29.9484 13.7907 3.85783
head 10.8038 6.54292 1.95834
rclavicle 8.01506e-015 4.12478e-015
rhumerus -46.7173 14.8546 -97.8351
rradius 33.9269
rwrist 12.8974
rhand -5.35881 -55.3771
rfingers 7.12502
rthumb 20.4486 -84.3204
lclavicle 8.01506e-015 4.12478e-015
lhumerus -43.3619 -8.65681 92.221
lradius 36.1308
lwrist -15.374
lhand -2.75029 -35.8203
lfingers 7.12502
lthumb 22.9536 -7.16681
rfemur -6.43438 12.7587 22.6956
rtibia 28.1972
rfoot -26.0837 -29.5429
rtoes 10.7181
lfemur -8.77237 -23.6486 -25.5576
ltibia 28.4893
lfoot -22.5528 21.0945
ltoes -40.9145
192
root 8.25916 15.1524 42.2853 179.623 -6.90604 -179.922
lowerback 6.80161 2.2925 0.814129
upperback -3.56137 3.0981 -0.23331
thorax -7.49757 1.4545 -1.10617
lowerneck -6.86751 12.0636 4.73199
upperneck 29.9933 13.3904 3.9188
head 10.8451 6.34135 1.98309
rclavicle 6.49156e-015 1.963e-015
rhumerus -46.7002 14.856 -97.8477
rradius 33.9117
rwrist 13.0926
rhand -5.46722 -55.2842
rfingers 7.12502
rthumb 20.3444 -84.2386
lclavicle 6.49156e-015 1.963e-015
lhumerus -43.3091 -8.60263 92.209
lradius 36.0723
lwrist -15.3921
lhand -2.74649 -35.7019
lfingers 7.12502
lthumb 22.9572 -7.04884
rfemur -6.34367 12.8265 22.7114
rtibia 28.1797
rfoot -26.1706 -29.7874
rtoes 10.646
lfemur -8.75024 -23.7568 -25.5995
ltibia 28.5022
lfoot -22.4053 21.1272
ltoes -41.3274
193
root 8.25795 15.1512 42.2857 179.65 -6.91182 -179.864
lowerback 6.77389 2.27749 0.872264
upperback -3.57574 3.07987 -0.277629
thorax -7.4917 1.4412 -1.18176
lowerneck -6.98271 11.7301 4.60148
upperneck 29.9289 12.9254 3.92609
head 10.8288 6.11448 1.95477
rclavicle 3.48743e-014 -3.67752e-015
rhumerus -46.727 14.817 -97.931
rradius 34.0075
rwrist 13.1721
rhand -5.37959 -55.3005
rfingers 7.12502
rthumb 20.4287 -84.2459
lclavicle 3.48743e-014 -3.67752e-015
lhumerus -43.325 -8.66388 92.1672
lradius 36.0743
lwrist -15.3032
lhand -2.8929 -35.7417
lfingers 7.12502
lthumb 22.8167 -7.07123
rfemur -6.37415 12.9178 22.7723
rtibia 28.1771
rfoot -26.1486 -29.8568
rtoes 10.4498
lfemur -8.78506 -23.8174 -25.5331
ltibia 28.5029
lfoot -22.1835 21.3052
ltoes -41.8312
194
root 8.25664 15.1505 42.287 179.681 -6.75116 -179.732
lowerback 6.72219 2.33808 1.02809
upperback -3.58766 3.17278 -0.315455
thorax -7.46177 1.478 -1.31811
lowerneck -6.97728 11.3765 4.37922
upperneck 29.7354 12.437 4.02071
head 10.7261 5.88239 1.95409
rclavicle -5.47217e-014 -2.78299e-015
rhumerus -46.6639 14.714 -97.9533
rradius 34.0426
rwrist 13.2555
rhand -4.97496 -55.4891
rfingers 7.12502
rthumb 20.8175 -84.3923
lclavicle -5.47217e-014 -2.78299e-015
lhumerus -43.3232 -8.75628 92.0916
lradius 36.1309
lwrist -15.0059
lhand -2.45087 -35.9286
lfingers 7.12502
lthumb 23.2409 -7.311
rfemur -6.4692 12.9227 22.8737
rtibia 28.162
rfoot -26.0518 -29.7687
rtoes 10.1491
lfemur -8.84709 -23.7359 -25.3769
ltibia 28.5325
lfoot -22.1655 21.4146
ltoes -42.0104
195
root 8.25676 15.1481 42.2879 179.562 -6.69468 -179.832
lowerback 6.8449 2.37056 0.879566
upperback -3.55649 3.20114 -0.361492
thorax -7.50426 1.49829 -1.29227
lowerneck -7.01164 11.0279 4.09768
upperneck 29.582 11.9743 4.08673
head 10.6454 5.6508 1.96078
rclavicle 1.26725e-015 4.77083e-015
rhumerus -46.5744 14.6727 -97.941
rradius 33.9755
rwrist 13.4318
rhand -4.4617 -55.9014
rfingers 7.12502
rthumb 21.3105 -84.7497
lclavicle 1.26725e-015 4.77083e-015
lhumerus -43.326 -8.80347 92.1544
lradius 35.9353
lwrist -15.5105
lhand -3.64819 -36.0435
lfingers 7.12502
lthumb 22.0918 -7.28546
rfemur -6.35589 12.8713 22.7754
rtibia 28.1776
rfoot -26.0462 -29.6694
rtoes 10.6929
lfemur -8.70064 -23.6041 -25.54
ltibia 28.5433
lfoot -22.3124 21.3194
ltoes -41.7523
196
root 8.25626 15.1458 42.2888 179.452 -6.70872 -179.881
lowerback 6.99102 2.34415 0.711595
upperback -3.55163 3.15216 -0.345345
thorax -7.59502 1.48235 -1.18228
lowerneck -7.08956 10.7112 3.7705
upperneck 29.515 11.5531 4.16751
head 10.6027 5.43065 1.99112
rclavicle 4.16454e-014 -2.78299e-015
rhumerus -46.5561 14.7773 -97.9861
rradius 33.8867
rwrist 13.4718
rhand -4.32718 -56.1504
rfingers 7.12502
rthumb 21.4397 -84.984
lclavicle 4.16454e-014 -2.78299e-015
lhumerus -43.103 -8.40546 92.0513
lradius 35.5285
lwrist -15.9591
lhand -3.96663 -36.161
lfingers 7.12502
lthumb 21.786 -7.36712
rfemur -6.22466 12.8944 22.7536
rtibia 28.2149
rfoot -26.0567 -29.644
rtoes 11.2972
lfemur -8.56236 -23.5525 -25.6418
ltibia 28.5257
lfoot -22.4892 21.1219
ltoes -41.0716
